<?xml version="1.0" encoding="utf-8"?>
<svg version="1.1" xmlns="http://www.w3.org/2000/svg" xmlns:xlink="http://www.w3.org/1999/xlink" x="0px" y="0px"
	 viewBox="-50 176 511 442" enable-background="new -50 176 511 442" xml:space="preserve">
<g id="Layer_1">
	<path fill="#FDFCFC" d="M-50,176h511v442H-50V176z"/>
	<radialGradient id="SVGID_1_" cx="206.6013" cy="191.4567" r="7.6054" gradientUnits="userSpaceOnUse">
		<stop  offset="0" style="stop-color:#FFB400"/>
		<stop  offset="1" style="stop-color:#FF6E02"/>
	</radialGradient>
	<path fill="url(#SVGID_1_)" d="M203.4,184.6c4.9-2.6,11.5,1.9,10.7,7.4c-0.1,5.5-7.4,9.2-11.8,5.7
		C197.4,194.8,198.2,186.7,203.4,184.6z"/>
	<path fill="#0F0D0A" d="M196.4,200.5c6.9-0.4,14-0.6,20.9,0.1c0.3,0.4,0.8,1.3,1.1,1.8c22.1,1.1,44,5.6,64.9,12.9
		c1.5-0.8,3.3-0.7,5-0.7c1.6,0.7,3.2,1.4,4.8,2.1c1.6,0.8,3.3,1.6,4.9,2.4c4,1.7,8,3.5,10.8,7c0,0.4-0.1,1.3-0.2,1.7l0.5-1.4
		c16,8,31.1,18.1,44.7,29.6c1.9,1.4,3.5,4,6.2,3.4c5.2,3.2,9.1,8,13.5,12.1c2.7,2.1,2.1,6,4.5,8.2c10.3,11.7,19.4,24.4,27.1,38
		c2,4.1,6.4,6.6,7.7,11.3c0.7,1.3,1.4,2.6,2.1,3.9c2.1,3.6,4.5,7.3,3.5,11.7c7.9,19.9,13.3,40.8,15.4,62.2
		c1.6,11.3,1.2,22.7,1.2,34.1c0,14.3,0,28.6,0,42.9c-152.7,0-305.3,0-458,0c0-16.7,0-33.3,0-50c-1.1-9-0.7-18.1,1.2-27
		c2.2-20.2,6.9-40.2,14.3-59.1c0.9-1.6,0.7-3.3,0.3-4.9c0.3-1.1,0.5-2.1,0.8-3.2c2.1-3.6,4.2-7.2,6.1-10.9c1.8-3.2,4.4-5.8,6.1-9.1
		c8.2-14.9,18.3-28.8,29.5-41.6c0.1-1.3-0.3-2.9,0.9-3.9c3.5-3.9,7.2-7.6,10.9-11.3c2.1-2.3,5.6-2,7.8-4.1
		c14.5-12.8,30.6-23.7,47.9-32.4c5.1-4.2,11.4-6.5,17.3-9.4c2.8-1.6,6.1-0.5,9-1.9c21.6-7.9,44.5-11.9,67.5-13.2
		C196.6,201.7,196.5,200.9,196.4,200.5z"/>
	<radialGradient id="SVGID_2_" cx="301.3957" cy="210.5584" r="7.6421" gradientUnits="userSpaceOnUse">
		<stop  offset="0" style="stop-color:#FFB400"/>
		<stop  offset="1" style="stop-color:#FF6E02"/>
	</radialGradient>
	<path fill="url(#SVGID_2_)" d="M299.2,203.3c4.4-1.5,9.5,2,9.8,6.6c0.5,4.4-3.7,8.6-8,8.3c-4.1-0.1-7.8-4.1-7.1-8.2
		C293.9,206.8,296.4,204.2,299.2,203.3z"/>
	<radialGradient id="SVGID_3_" cx="110.5155" cy="211.6135" r="7.6051" gradientUnits="userSpaceOnUse">
		<stop  offset="0" style="stop-color:#FFB400"/>
		<stop  offset="1" style="stop-color:#FF6E02"/>
	</radialGradient>
	<path fill="url(#SVGID_3_)" d="M108.2,204.4c4.7-1.7,10.4,2.6,9.9,7.6c0.3,6.1-8.1,9.6-12.4,5.4C101,214,102.6,205.8,108.2,204.4z"
		/>
	<path fill="#FDFCFC" d="M128.9,222.9c21.4-8.6,44.5-12.4,67.5-13.8c0.5,1,1,2,1.5,3c0.1,18.9-0.2,37.8,0.1,56.8
		c0.9,4.3,8,3.6,8.1-0.8c0.2-11.1-0.1-22.2,0.1-33.4c0.4,0.2,1.2,0.5,1.6,0.7c0.2,10.8,0,21.7,0.1,32.6c-0.4,2.9,3.5,4.8,5.8,3.4
		c1.8-0.6,2.4-2.6,2.4-4.3c0-18.5,0-36.9,0-55.4c1.9-0.9,3.7-2.5,6-2.1c21,1.4,42,5.6,61.6,13.4c0.2,1,0.4,1.9,0.5,2.9
		c-8,16.5-15.9,32.9-23.8,49.5c-1.8,2.5,0.3,7,3.7,6.1c1.8,0.1,2.8-1.5,3.5-2.9c4.9-9.7,9.1-19.8,14.2-29.4c0.5,0.7,0.8,1.6,1.2,2.4
		c-5,9.3-9.1,19-13.8,28.4c-1.3,1.8,0.1,3.7,0.7,5.4c1.8,0.1,3.6,0,5.4-0.1c8.7-17.2,16.6-34.8,25-52.1c1.5,0.2,2.9-0.3,4-1.4
		c15.2,7.4,29.4,16.6,42.5,27.3c2.6,2.2,5.4,4.4,7.6,7.1c-0.3,1.1-0.6,2.2-0.8,3.3c-12.9,13.1-25.5,26.5-38.4,39.5
		c-2,1.7-1,4.3-0.1,6.3c2.1,0.3,4.7,0.7,6.2-1.2c7.5-7.8,15.1-15.6,22.6-23.4c0.2,0.5,0.7,1.6,0.9,2.1c-7.5,8-15.4,15.7-22.9,23.7
		c-1.6,1.6-0.5,3.8,0.5,5.5c1.5,0.8,3.2,0.4,4.9,0.5c8.1-8.5,16.3-16.9,24.5-25.4c4.4-6.1,10.7-10.5,15.5-16.3
		c0.6,1.8,2.2,1.4,3.7,1.1c12.3,13.6,22.9,28.6,31.4,44.8c-1.4,1.2-2.6,2.8-4.2,3.7c-11,5.8-22,11.4-33,17.1c-5,2.7-10.1,5.2-15,8
		c-2.3,1.2-2,4.3-0.9,6.3c1.5,0.5,3.4,1.1,4.9,0.3c10-4.8,19.4-10.8,29.5-15.3c0,0.6,0.1,1.8,0.1,2.3c-9.3,4.8-18.5,9.7-27.7,14.5
		c-1.3,0.6-2.3,1.6-3.2,2.6c0,0.9,0,1.8,0,2.7c1.2,2.4,4.2,3.1,6.5,1.8c7.8-4,15.5-8.3,23.4-12.4c8.6-4.5,16.8-9.6,25.7-13.4
		c0.4,0.3,1.2,1,1.6,1.4c0.4-0.1,1.1-0.4,1.4-0.5c8.4,20.4,14.1,42,15.7,64.1c-1.3,0.1-2.6,0.3-3.9,0.4c-1.9,1.8-4.7,0.9-7,1.3
		c-8.6,1.1-17.4,0.2-26,1.2c-6.7,0.4-13.4,0.4-20.1,0.7c-1.8,0.3-3.7,0.5-5.5,0.7c-1.6,1.4-2.2,3.3-1.8,5.4c0.6,0.4,1.8,1.3,2.4,1.7
		c11.6,0.1,23.2-1.5,34.9-1.4c-0.2,0.6-0.5,1.7-0.7,2.3c-11.5,1-23,0.9-34.5,2c-0.5,0.8-1,1.6-1.6,2.4c-0.9,0-2.6,0.1-3.5,0.1
		c-0.9-31.1-11.1-62-29.6-87.1c-13.1-18.2-30.4-33.2-50-44c-29.1-16-63.4-22.4-96.3-17.5c-28.2,4.1-55.2,16-76.9,34.5
		c-33.5,27.8-53.8,70.5-54.8,114c-1.9-0.1-4,0-5.1,1.7c-0.7-0.9-1-2-1.4-3.1c-11.4-1.2-23-1.6-34.5-2.2c0.1-0.9,0.3-1.8,0.5-2.7
		c7,1,14.1,0.8,21.1,1.6c4.8,0.2,9.6,0.8,14.4,0.4c0.7-1.5,1.2-3,1.5-4.6c-0.8-0.8-1.5-1.6-2.3-2.3c-7.1-1.4-14.3-0.7-21.4-1.8
		c-13.3-0.5-26.6-1.3-39.9-2.4c1.2-21.5,6.6-42.6,14.6-62.5c0.6-2.5,3.9-2.8,5.8-1.5c11.2,6.1,22.1,12.8,33.3,19
		c2.4,1.3,4.8,2.6,7.2,4c2.7,1.3,5.1,3.1,7.9,4.1c2.2,0.2,3.6-1.6,4.7-3.2c-0.5-1.1-0.9-2.2-1.3-3.3c-9.6-5.9-19.7-11.1-29.6-16.6
		c0-0.4,0-1.2,0-1.6c0.5-0.1,1.6-0.2,2.2-0.3c5.7,3.4,11.5,6.5,17.2,9.8c3.6,2.1,7.3,4,10.8,6.3c1.7,0.1,3.3-0.4,4.8-1.1
		c0.1-1.8,0-3.6-0.2-5.4c-16.5-9.3-33.2-18.3-49.6-27.7c-0.9-1.4-2.1-2.7-2.8-4.2c8.3-16,18.8-30.9,30.9-44.3
		c1.3,0.6,2.8,0.8,4.2,0.7c3.3,2.6,5.5,6.1,8.6,9c10.3,9.8,20.4,19.7,30.6,29.6c1.7,1.9,4.2,1.1,6.1,0.1c0.2-0.6,0.5-1.9,0.7-2.5
		c-0.3-1.7-1-3.2-2.3-4.3c-7.6-7.2-15-14.5-22.5-21.7c0.4-0.4,1.3-1.1,1.7-1.4c7.9,7.8,15.9,15.6,23.9,23.3c1.7,1.6,3.8,0.1,5.6-0.5
		c0.1-1.6,0.2-3.3,0.3-5c-13.8-13.2-27.4-26.5-41.3-39.6c0.2-1.2,0.3-2.3,0.2-3.5c14.5-13.4,31-24.7,48.6-33.7
		c2.2-1.6,5.3-0.2,6.6,1.9c2.1,3.4,3.4,7.2,5.1,10.8c6.2,13.4,12.6,26.7,18.9,40.1c1.1,0.5,2.2,1,3.4,1.5c2.9-0.8,4.4-3.9,2.9-6.6
		c-4.6-9.8-9.3-19.7-14.1-29.4c0.6,0,1.9-0.1,2.5-0.1c4.6,10.3,9.6,20.4,14.4,30.7c0.5,0.2,1.6,0.7,2.1,0.9c0.7-0.1,2.2-0.3,2.9-0.4
		c0.3-0.3,0.8-1,1.1-1.3c0.3-0.8,0.7-1.5,1.1-2.3c-7.8-17.3-16.3-34.3-24.4-51.5C127.1,225.9,128.4,224.3,128.9,222.9z"/>
	<radialGradient id="SVGID_4_" cx="374.5503" cy="260.4746" r="7.6055" gradientUnits="userSpaceOnUse">
		<stop  offset="0" style="stop-color:#FFB400"/>
		<stop  offset="1" style="stop-color:#FF6E02"/>
	</radialGradient>
	<path fill="url(#SVGID_4_)" d="M373.1,253.1c5.7-1.6,11,5.2,8.4,10.4c-1.9,4.7-8.8,6.3-12.3,2.4C364.8,262,367.2,253.8,373.1,253.1
		z"/>
	<radialGradient id="SVGID_5_" cx="35.5266" cy="262.4883" r="7.597" gradientUnits="userSpaceOnUse">
		<stop  offset="0" style="stop-color:#FFB400"/>
		<stop  offset="1" style="stop-color:#FF6E02"/>
	</radialGradient>
	<path fill="url(#SVGID_5_)" d="M33.2,255.2c4.8-1.7,10.3,2.7,9.9,7.8c-0.2,5.5-7.3,9.2-11.8,5.8C26,265.7,27.2,256.7,33.2,255.2z"
		/>
	<radialGradient id="SVGID_6_" cx="207.2883" cy="416.6918" r="118.376" gradientUnits="userSpaceOnUse">
		<stop  offset="0" style="stop-color:#FFB400"/>
		<stop  offset="1" style="stop-color:#FF6E02"/>
	</radialGradient>
	<path fill="url(#SVGID_6_)" d="M166,286.1c31.4-8.7,65.6-6.9,95.8,5.3c29.2,11.7,54.5,32.9,71.2,59.6c14.8,23.5,22.8,51.2,22.9,79
		c-99.9,0-199.8,0-299.7,0c0-30.7,9.8-61.2,27.7-86.2C103.5,315.9,133,295.1,166,286.1z"/>
	<radialGradient id="SVGID_7_" cx="422.4396" cy="327.5858" r="7.6348" gradientUnits="userSpaceOnUse">
		<stop  offset="0" style="stop-color:#FFB400"/>
		<stop  offset="1" style="stop-color:#FF6E02"/>
	</radialGradient>
	<path fill="url(#SVGID_7_)" d="M419.4,320.6c4.9-2.3,11.2,2,10.6,7.5c-0.2,5.6-7.4,9.2-11.9,5.8
		C413.1,330.9,413.9,322.6,419.4,320.6z"/>
	<radialGradient id="SVGID_8_" cx="-10.3679" cy="328.4671" r="7.6558" gradientUnits="userSpaceOnUse">
		<stop  offset="0" style="stop-color:#FFB400"/>
		<stop  offset="1" style="stop-color:#FF6E02"/>
	</radialGradient>
	<path fill="url(#SVGID_8_)" d="M-11.9,321c5.4-1.3,10.8,4.6,8.8,9.9c-1.7,5.2-9,7.1-12.7,2.9C-20.2,329.9-17.7,321.8-11.9,321z"/>
	<radialGradient id="SVGID_9_" cx="-32.3977" cy="419.3291" r="7.6913" gradientUnits="userSpaceOnUse">
		<stop  offset="0" style="stop-color:#FFB400"/>
		<stop  offset="1" style="stop-color:#FF6E02"/>
	</radialGradient>
	<path fill="url(#SVGID_9_)" d="M-34.4,412c5.6-1.8,11.5,4.5,9.2,9.9c-1.6,4.8-8.1,6.9-12,3.4C-42.2,421.9-40.2,413.3-34.4,412z"/>
	<radialGradient id="SVGID_10_" cx="443.4824" cy="419.4324" r="7.6522" gradientUnits="userSpaceOnUse">
		<stop  offset="0" style="stop-color:#FFB400"/>
		<stop  offset="1" style="stop-color:#FF6E02"/>
	</radialGradient>
	<path fill="url(#SVGID_10_)" d="M442,411.9c5.1-1,10.3,4,8.9,9.2c-1.1,5.3-8.1,8-12.2,4.3C433.5,421.8,435.8,412.7,442,411.9z"/>
	<path fill="#F78509" d="M23.8,434.5c5.7,0.1,12-0.9,16.9,2.7c3.9,2.3,5.8,6.5,6.6,10.8c11,0,22,0,33.1,0c0,1,0,2.8,0,3.8
		c-1.4,0-2.7,0-4.1,0c-0.1,8.6-0.1,17.2,0,25.8c-2.2,0.3-3.7-1.4-5.3-2.6c0-3,0-6.1,0-9.1c-4.3,1-9.2,2.3-13.1-0.6
		c-4.7-2.8-2.3-9-2.9-13.5c-2.3,0-4.5,0-6.8,0.1c0.1,8.5,0,17.1,0.1,25.6c-2.2,0.3-3.7-1.4-5.3-2.5c0-7.7,0-15.4,0-23.1
		c-1.5,0-2.9-0.1-4.4-0.1c0-0.9,0-2.8,0-3.8c1.8,0,3.6,0,5.4,0c-0.8-2.4-1.2-5.1-3.4-6.7c-3.8-3.3-9-3.1-13.7-3.1
		C25.9,436.9,24.9,435.7,23.8,434.5z"/>
	<path fill="#F78509" d="M200.8,440c-0.1-3.7,3.8-6,7.1-6c3.4-0.3,6.1,2.4,7.1,5.4c-2.8-1.4-6.5-4.9-9.6-1.9c-3.1,2.7-0.7,7,2.2,8.8
		c-0.7,0.4-1.3,0.8-2,1.2C203.6,445.4,200.6,443.3,200.8,440z"/>
	<path fill="#F78509" d="M220.1,440.1c2.9-4.1,8.4-5.1,13-4.8c5.3,0.3,9.9,3.4,13.9,6.7c2,1.7,4.3,3.3,5,5.9
		c15.3,0.3,30.6,0,45.9,0.1c0,1.2,0,2.5,0,3.8c-2.2,0-4.3,0.1-6.5,0.2c-0.2,2.2,0.7,4.8-0.9,6.6c-3.8,0.4-7.6-1.6-11.5-0.9
		c-2.9,0.4-6.5,1.3-7.7,4.3c-1.6,3.8,1.9,7.8,5.7,8.1c2.6,0.2,5.4,0.4,7.6-1.2c-0.5-1.6-0.8-3.2-0.9-4.9c2.6-0.9,5.8-1.8,8.1,0.3
		c2.3,2.2-0.4,4.6-1.7,6.3c2.7,1.8,5.5,3.3,7.9,5.5c0,0.7,0.2,2,0.2,2.7c-1,0.4-2,0.7-3,1.1c-1-0.5-1.9-1-2.9-1.5
		c0.7-0.4,2.1-1.2,2.9-1.6c-2.1-1.7-4.2-3.4-6.3-5c-7.4,3.8-17.3,1.2-22.1-5.5c-2.2-3.3-0.4-7.8,2.9-9.6c4.9-3.1,11-1.7,16.4-1.5
		c0-0.8,0-2.5,0-3.3c-9.1,0-18.3,0-27.4,0c-0.2,8.6,0,17.3-0.1,25.9c-1.9-0.4-4.2-1-5.2-2.8c-0.3-3.4-0.1-6.7-0.1-10.1
		c-4.3,0-8.6,0-12.9,0c0,0.9,0,2.6,0,3.5c-1.6-0.2-3.3,0-4.6-1c-2-1.4-5.1-2.6-5-5.5c1.5,0,2.9,0,4.4,0c0-3.3,0-6.6,0-10
		c-3.6,0-7.2,0-10.8,0.1c-0.1,8.4,0.3,16.8-0.2,25.2c-1.4,1.7-3.6-1.1-5.1-1.8c0-7.8,0-15.6,0-23.4c-1.4,0-2.7,0-4.1,0
		c0-1,0-2.8,0-3.8c1.4,0,2.7,0,4.1,0C219.2,445.4,218.4,442.4,220.1,440.1z"/>
	<path fill="#F78509" d="M287.5,436.7c3.5-1.3,5.5,4.4,1.9,5.5C286,443.6,284,437.9,287.5,436.7z"/>
	<path fill="#F78509" d="M368,438c6.6-4.1,15.7-2.4,21.5,2.4c2.5,1.9,3.6,4.9,5.5,7.4c1.8,0.2,3.7,0.1,5.5,0.1
		c0,0.9-0.1,2.7-0.2,3.6c-1.1,0.1-2.2,0.1-3.3,0.2c0,8.6,0,17.2,0,25.9c-2-0.3-3.7-1.2-5.2-2.4c0.1-7.8,0-15.7,0.1-23.5
		c-3.9-0.1-7.9,0.2-11.8,0.3c0,3.1,0,6.2,0.1,9.4c-1.9,2.4-5.1,2.6-7.9,3.1c-0.8,1.1-0.8,2.2,0.2,3.3c3.1,4.4,8.3,6.5,11.8,10.4
		c-5.5-2.1-10.5-5.5-15.1-9.2c-2.2-1.8-4.3-4.7-3.3-7.7c2-2.9,6.1-2.2,9-1.5c0-2.6,0-5.2,0-7.8c-4.9,0-9.8,0-14.8,0
		c0,8.6,0,17.3,0,25.9c-2-0.4-3.7-1.4-5.3-2.5c0.1-7.8,0-15.6,0.1-23.3c-5.1,0-10.2-0.2-15.3,0c-1.5,3.1,3.8,1.8,5.1,3.5
		c2.9,1.9,4.5,6,3.2,9.3c-2.2,3.8-6.8,4.9-10.6,6.3c4,3.1,8.4,5.8,13.1,7.6c-1.4,0.1-2.7,0.2-4,0.4c-3.8-2.2-7.5-4.8-11.5-6.7
		c-2.6-1.3-6.3-1.3-7.7-4.3c-0.8-3.8,4.1-4.2,6.6-3.1c0.2,0.7,0.7,2.1,1,2.7c3.3-1.1,7.3-1.7,9.3-4.8c1.7-2,1-5.4-1.5-6.2
		c-4.2-2-8.6,0.5-12.2,2.5c-1.1-1-2.3-1.9-3.4-2.9c2.5-0.7,5-1.3,7.4-2.4c0-0.5,0-1.5,0-2c-3.5-0.2-7,0-10.5-0.1
		c-0.1-1.2-0.1-2.5-0.2-3.7c22.9-0.4,45.9,0.2,68.8-0.4c-2.6-5.4-8.1-9.3-14.1-9.5c-2.5,0.2-5.4,0.7-6.8,3c-0.4,1.9-0.3,3.8-0.4,5.8
		c-1.9,0.1-3.9,0.2-5.8,0.2C365.1,444,364.7,439.9,368,438z"/>
	<path fill="#F78509" d="M415.5,436.7c3.5-1.2,5.5,4.4,1.9,5.6C413.9,443.5,412,437.9,415.5,436.7z"/>
	<path fill="#0F0D0A" d="M226.1,440.1c2.7-2.7,6.9-2.5,10.4-1.7c5.9,1.7,10.6,5.8,15.2,9.6c-9.2,0-18.4,0.1-27.5,0
		C224.3,445.3,223.8,442.1,226.1,440.1z"/>
	<path fill="#F78509" d="M-13.8,448c17.4,0,34.9,0,52.3,0c0,0.9,0,2.8,0,3.8c-2.2,0-4.4,0.1-6.6,0.1c0,3.1,0,6.2,0,9.3
		c-1.9,2.3-4.9,2.9-7.7,3c-0.3,0.4-0.9,1.4-1.1,1.8c3,5.4,8.8,7.9,13.1,12c-5.4-1.9-10.1-5.2-14.6-8.6c-2.4-1.9-4.9-4.8-4.2-8
		c1.9-3.1,6.2-2.5,9.1-1.7c0-2.6,0-5.2,0-7.9c-5.2,0-10.4,0-15.7,0c-0.2,8.8,0.4,17.5-0.4,26.3c-1.8-0.9-3.5-1.9-5-3.2
		c0.1-3,0.1-6,0.1-9c-4.5,0.8-9.7,2.2-13.6-1c-3.9-2.7-2-8-2.5-11.9c0.2-1.8-2.2-1.1-3.3-1.5C-13.8,450.4-13.8,449.2-13.8,448z"/>
	<path fill="#F78509" d="M80.6,448c19.9,0,39.9,0,59.8,0c0,1,0,2.8-0.1,3.8c-1.2,0-2.5,0-3.8,0c-0.2,8.7,0,17.3-0.1,26
		c-2-0.5-5.2-1.2-5.2-3.7c-0.1-7.4,0-14.8-0.1-22.2c-8,0-16-0.1-23.9,0c0,2.7,0,5.4,0,8.1c3.4-1.6,7.6-3.4,11.2-1.3
		c2.7,1.8,5.9,4.8,4.7,8.3c-0.8,3.2-4.2,4.2-6.7,5.8c-1.2-1.2-2.4-2.3-3.6-3.5c2.5-0.6,5.1-1.6,6.7-3.7c1.2-1.2,0.8-3.6-1-4
		c-4-1.8-7.8,1.1-11.3,2.8c-0.1,4.4,0,8.9,0,13.3c-2.1,0.1-3.7-1.2-5.3-2.3c0-2.8,0-5.6,0-8.4c-5.6,3.8-14.5,3.6-18.7-2.1
		c-2.3-4,2.1-7.6,5.8-8c4.9-1.4,9.3,1.5,12.9,4.4c0-3.1,0-6.2,0-9.3c-7.1,0-14.3,0-21.4,0C80.6,450.8,80.6,449,80.6,448z"/>
	<path fill="#F78509" d="M140.6,448c12.7,0,25.3-0.1,38,0.1c0,1.2-0.1,2.5-0.1,3.7c-1.3,0-2.6,0-3.9,0c-0.2,8.6,0,17.3-0.1,26
		c-1.9-0.4-4.2-1-5.2-2.9c-0.3-7.7,0-15.4-0.1-23.1c-3.8,0-7.6,0-11.3,0c0,3.1,0.2,6.1-0.2,9.2c-1.3,2.9-4.9,2.8-7.5,3.1
		c-0.3,0.5-0.8,1.4-1.1,1.9c3,5.3,8.9,7.9,13.1,12c-5.4-1.9-10.1-5.2-14.7-8.6c-2.5-1.9-5-4.8-4.1-8.1c1.9-3,6.1-2.6,9.1-1.5
		c0-2.6,0.1-5.2,0.1-7.8c-4-0.2-8-0.1-12-0.2C140.6,450.9,140.6,449,140.6,448z"/>
	<path fill="#F78509" d="M182.6,451c3.7-6,17-3,15.2,4.9c-2.7,4.9-9,5.8-14.1,5.1c1.3,2.3,3,4.6,5.6,5.5c5.7,2,12.4-1,15.9-5.7
		c0.4-2.9,0.2-5.8,0.2-8.6c-2.6-0.6-4.5-2.4-6.3-4.2c5-0.1,10-0.3,15,0c0,0.9,0,2.8,0,3.7c-1.1,0-2.2,0.1-3.3,0.1
		c-0.1,8.5,0.1,17-0.1,25.5c-2.3,0.9-3.7-1.5-5.3-2.6c0.1-2.9,0.1-5.7,0.2-8.5c-3.6,2.7-7.9,5.3-12.7,4.8
		c-6.3-0.9-11.4-6.3-12.4-12.5c3.2,0.4,6.8,1.6,9.6-0.5c1.8-1.1,4.8-2.1,4.2-4.8c-0.3-4-6.7-4.4-8.3-1.1c-0.6,2.6,2.3,4,3.6,5.8
		C186.5,456.9,182.1,454.9,182.6,451z"/>
	<path fill="#F78509" d="M400.7,448c8,0,16-0.1,23.9,0c-0.1,1.2-0.1,2.5-0.1,3.7c-2.2,0-4.3,0-6.5,0.1c0,3.1,0,6.3,0.1,9.4
		c-2,2.4-5.2,2.8-8.2,2.9c-0.9,2.5,1.1,4.5,2.8,6.1c2.9,2.8,6.7,4.6,9.4,7.7c-5.5-2.1-10.5-5.5-15.1-9.1c-2.2-1.8-4.4-4.8-3.3-7.8
		c2-2.8,6-2.2,9-1.3c0-2.6,0-5.3,0-8c-4.1,0.1-8.1,0.1-12.2-0.1C400.6,450.8,400.6,448.9,400.7,448z"/>
	<path fill="#0F0D0A" d="M-5.2,451.8c3.5,0,7.1,0,10.6,0c0,3.1,0,6.1,0,9.1c-3.1,1.5-6.8,3.1-10.2,1.6C-5.8,459.2-5,455.4-5.2,451.8
		z"/>
	<path fill="#0F0D0A" d="M60.3,451.8c3.6,0,7.2,0,10.7,0c0,3,0,6.1,0,9.1c-3.1,1.7-6.6,2.4-10.1,2.1
		C59.7,459.5,60.3,455.6,60.3,451.8z"/>
	<path fill="#0F0D0A" d="M240.2,451.9c4.3-0.1,8.6-0.1,13,0c0,3.3,0,6.6,0,9.9c-4.3,0-8.6,0-12.9,0
		C240.2,458.5,240.2,455.2,240.2,451.9z"/>
	<path fill="#0F0D0A" d="M87.1,463c1-1.6,2-3.4,4-3.8c4-1.8,8.1,0.8,11.2,3.3c-3.5,2.3-7.5,5.6-12,4.2
		C88.4,466.3,87.9,464.4,87.1,463z"/>
	<path fill="#0F0D0A" d="M-24.9,492.5c7.1,0,14.2,0,21.3,0c3,10.9,6.8,21.6,8.8,32.8c2.1-11.2,6.1-21.8,9.1-32.8
		c7-0.1,13.9,0,20.9,0c-6.9,18.3-13.9,36.6-20.8,55c-6.1,0-12.2,0-18.4,0C-11,529.2-17.9,510.9-24.9,492.5z"/>
	<path fill="#0F0D0A" d="M38.1,492.5c6.6,0,13.2,0,19.9,0c0,18.3,0.1,36.7,0,55c-6.7,0-13.3,0-20,0
		C37.9,529.2,38.1,510.9,38.1,492.5z"/>
	<path fill="#0F0D0A" d="M60.9,492.5c7.1,0,14.2,0,21.3,0c3,11,7.1,21.7,8.7,33c2.2-11.2,6.1-22,9.2-33c7,0,13.9,0,20.9,0
		c-6.9,18.3-13.9,36.7-20.8,55c-6.1,0-12.3,0-18.4,0C74.8,529.2,67.8,510.9,60.9,492.5z"/>
	<path fill="#0F0D0A" d="M123.3,492.5c12.1,0,24.2,0,36.4,0c0,5,0,10,0,15c-5.8,0-11.5,0-17.2,0c0,1.8,0,3.5,0,5.3
		c5.2,0,10.5,0,15.8,0c0,4.6,0,9.3,0,13.9c-5.3,0-10.5,0-15.8,0c0,1.9,0,3.8,0,5.7c5.9,0,11.8,0,17.7,0c0,5,0,10,0,15
		c-12.3,0-24.7,0-37,0C123.2,529.2,123.3,510.9,123.3,492.5z"/>
	<path fill="#0F0D0A" d="M168.5,492.5c6.4,0,12.8,0,19.2,0c0,7.8,0.1,15.6,0,23.4c4.3-7.7,8.4-15.6,12.6-23.4c7.4,0,14.8,0,22.2,0
		c-5.5,9.1-11.1,18.1-16.5,27.2c6.4,9.2,12.6,18.5,18.9,27.8c-7.9,0-15.9,0-23.8,0c-4.6-7.5-8.8-15.3-13.4-22.8c0,7.6,0,15.2,0,22.8
		c-6.4,0.1-12.9,0-19.3,0C168.5,529.2,168.5,510.9,168.5,492.5z"/>
	<path fill="#0F0D0A" d="M241.5,495.6c6.6-3.5,15.1,0.2,18.4,6.4c-1.1,1.1-2.4,2-3.6,2.9c-2.6-3.4-6.5-7.4-11.3-5.7
		c-5,1.2-6,8-2.6,11.3c5.9,6.3,15.3,10,17.9,18.9c2.6,8.6-5.7,17.5-14.3,16.5c-6.4-0.2-11-5.2-13.8-10.4c1.4-0.9,2.8-1.8,4.2-2.6
		c2.2,4,5.5,8.5,10.6,8.2c5.8,0,10.5-6.7,7.7-11.9c-4.1-7.4-12.9-10.5-17.7-17.4C233.4,506.5,235.5,498.2,241.5,495.6z"/>
	<path fill="#0F0D0A" d="M352.8,495.8c11.1-3.9,23.8-0.2,32,8c-1.3,1.2-2.6,2.4-3.9,3.5c-5.2-5.3-12.5-8.9-20-8.4
		c-8,0.5-15.6,5.6-18.6,13.1c-3.3,7.4-1.3,16.5,4.3,22.2c6.3,6.8,17.1,8.9,25.5,5.1c5.5-2.4,9.3-7.8,10.2-13.6
		c-5.2-0.1-10.4,0-15.7-0.1c0-1.6,0.1-3.1,0.1-4.7c7,0,14,0,21.1,0c-0.2,6.3-1.7,12.9-6.2,17.6c-6,6.9-16.1,8.5-24.7,6.9
		c-11-1.7-20.2-11.4-21.3-22.5C334.2,511.4,341.6,499.3,352.8,495.8z"/>
	<path fill="#0F0D0A" d="M286.9,495c11.6,12.1,22,25.3,33.5,37.4c0.1-12.3,0.1-24.6,0.1-36.8c1.6,0,3.3,0,4.9,0
		c-0.2,16.6,0.4,33.3-0.2,49.9c-11.6-12.3-22.3-25.3-33.5-37.9c-0.1,12.4,0.1,24.8,0,37.2c-1.7,0-3.3,0-5,0
		C286.8,528.2,286.6,511.6,286.9,495z"/>
	<path fill="#0F0D0A" d="M270.8,495.8c1.6,0,3.3,0,4.9,0c0,16.3,0.1,32.6,0,49c-1.7,0-3.3,0-5,0
		C270.7,528.5,270.8,512.1,270.8,495.8z"/>
	<path fill="#0F0D0A" d="M397.2,544.8c0-16.4,0-32.8,0.1-49.2c1.6,0,3.3,0,4.9,0.1c0,6.9,0,13.8,0,20.7c8.3,0,16.5,0,24.8,0
		c0-6.9,0.1-13.8,0-20.7c1.6,0,3.2,0,4.9,0c0,16.4,0.1,32.8,0.1,49.3c-1.7,0-3.3,0-5,0c0-7.9,0-15.9,0-23.8c-8.2,0-16.5,0-24.8,0
		c0,7.9,0.1,15.9,0,23.8C400.5,544.8,398.9,544.8,397.2,544.8z"/>
	<path fill="#F78509" d="M216.3,552.4c2.9-1.2,6.8,2.2,5.2,5.2c-1.1,3.1-6.2,3.4-7.5,0.3C212.5,555.8,214.1,553.1,216.3,552.4z"/>
	<path fill="#F78509" d="M275.5,553c1.6,0,3.2,0,4.8,0c0,16.8,0,33.5,0,50.3c-1.6,0-3.2,0-4.8,0C275.4,586.5,275.4,569.8,275.5,553z
		"/>
	<path fill="#F78509" d="M424.2,553.5c1.6,0,3.2-0.1,4.8-0.1c0.1,4.5,0,9.1,0,13.6c2.5,0,5,0,7.5,0c0,1.3,0,2.7,0,4
		c-2.5,0-5,0-7.5,0c0,10.8,0,21.5,0,32.3c-1.6,0-3.2,0-4.8,0c0-10.8,0-21.5,0-32.2c-2,0-4.1,0-6.1,0c0-1.3,0-2.7,0-4
		c2,0,4.1,0,6.2,0C424.2,562.5,424.1,558,424.2,553.5z"/>
	<path fill="#F78509" d="M312.7,553.5c1.6,0,3.2,0,4.8,0c0,4.5,0,9,0,13.5c2.5,0.1,5,0.1,7.5,0.1c0,1.3,0,2.7,0,4
		c-2.5,0-5,0-7.5,0.1c0.1,10.7,0,21.5,0,32.2c-1.6,0-3.2,0-4.8,0c0-10.8,0-21.5,0-32.2c-2.1,0-4.2,0-6.3,0c0-1.3,0-2.7,0-4
		c2.1,0,4.2,0,6.3,0C312.7,562.5,312.7,558,312.7,553.5z"/>
	<path fill="#F78509" d="M-16.8,573c3.7-5.5,11.1-8.7,17.5-5.9c3.3,1.2,5.2,4.3,6.6,7.4c3.2-5.8,10.3-10.1,17-7.8
		c5.3,1.4,8.2,7,8.4,12.2c0.5,8.1,0.1,16.2,0.2,24.3c-1.6,0-3.2,0-4.8,0c0-7.5,0.1-14.9,0-22.4c-0.2-2.9-0.3-6.2-2.7-8.2
		c-3.7-3.6-10.1-2.5-13.4,1.1c-3.2,3.2-3.6,7.9-3.8,12.1c-0.1,5.8,0,11.6,0,17.3c-1.6,0-3.2,0-4.8,0C3,595.2,3.4,587.1,3,579
		c0-3.6-2.3-7.6-6.1-8.2c-5.9-1.4-12,3.3-12.9,9.1c-1.4,7.7-0.4,15.5-0.7,23.3c-1.6,0-3.2,0-4.8,0c0-12.1,0-24.2,0-36.3
		c1.6,0,3.2,0,4.8,0C-16.7,569-16.8,571-16.8,573z"/>
	<path fill="#F78509" d="M51.2,568c6.7-3.2,15.4-2.3,20.9,2.8c4.3,3.6,6.1,9.2,6.3,14.7c-10.9,0.1-21.8-0.1-32.7,0.1
		c0.2,6.8,5.2,13.4,12.2,14c6.3,0.8,12.2-3,15.2-8.4c1.4,0.7,2.7,1.3,4,2c-2.5,4.6-6.5,8.7-11.7,10c-6.1,1.6-13.4,0.8-18.2-3.6
		c-4-3.8-6.5-9.2-6.4-14.7C40.9,578,45,571.2,51.2,568z"/>
	<path fill="#F78509" d="M91.4,572.9c2.5-3,5.6-5.8,9.6-6.4c6-1.6,12.6,2.1,14.4,8.1c2.1-2.9,4.4-5.8,7.9-7.2
		c4.6-2.1,10.5-1.4,14.1,2.4c3,3.3,3.7,8,3.7,12.3c0,7.1,0,14.2,0,21.3c-1.6,0-3.2-0.1-4.9-0.1c-0.1-8.1,0.2-16.2-0.1-24.3
		c0.1-3.7-2.3-7.5-6.1-8.2c-5.9-1.5-12,3.2-12.9,9.1c-1.4,7.7-0.5,15.6-0.8,23.4c-1.6,0-3.2,0-4.8,0c-0.1-7.8,0.2-15.6-0.1-23.4
		c-0.1-3.4-1.3-7.2-4.6-8.6c-5.9-2.5-12.9,1.8-14.2,7.8c-1.7,8-0.4,16.2-1,24.3c-1.6,0-3.1-0.1-4.7-0.1c0-12.1,0-24.2,0-36.3
		c1.6,0,3.3,0,4.9,0.1C91.6,569,91.5,570.9,91.4,572.9z"/>
	<path fill="#F78509" d="M163.5,566.7c7.2-1.9,15.4,0.9,19.8,7c5.8,7.4,4.8,19-2.2,25.3c-5,4.9-12.7,6.1-19.2,4
		c-8.3-2.6-13.8-11.6-12.6-20.2C150.1,575.3,156,568.4,163.5,566.7z"/>
	<path fill="#F78509" d="M198.4,571.9c3.1-4.1,8.7-7.6,13.7-4.5c-0.8,1.2-1.6,2.4-2.4,3.5c-4.9-1.8-9.3,2.6-10.3,7.1
		c-1.6,8.3-0.6,16.8-1,25.3c-1.6,0-3.2-0.1-4.7-0.1c0-12.1,0-24.2,0-36.3c1.7,0,3.3,0.1,4.9,0.1
		C198.6,568.7,198.5,570.3,198.4,571.9z"/>
	<path fill="#F78509" d="M230.8,575c4.4-7,13.3-10.6,21.2-8.1c3.8,0.8,6.5,3.6,9.2,6.1c0-2,0-4-0.1-6c1.6,0,3.2,0,4.9,0
		c0,12.1,0,24.2,0,36.2c-1.6,0-3.2,0.1-4.8,0.1c0-1.9-0.1-3.8-0.1-5.7c-3.6,3.4-8,6.3-13.1,6.4c-8.6,0.9-17.1-5.2-19.4-13.5
		C227.2,585.4,227.8,579.5,230.8,575z"/>
	<path fill="#F78509" d="M335,572c2-2.2,4-4.8,7-5.5c2.2-0.8,4.4,0.1,6.6,0.6c-0.8,1.3-1.6,2.6-2.4,3.9c-5.2-2-9.6,3.1-10.3,7.8
		c-1.4,8.1-0.6,16.3-0.8,24.4c-1.6,0-3.2,0-4.8,0c0-12.1,0-24.2,0-36.2c1.6,0,3.2,0,4.9,0C335,568.7,335,570.3,335,572z"/>
	<path fill="#F78509" d="M392,576.1c-0.4-5.1,4-9.6,8.9-9.9c4.3-0.3,8,2.3,11,4.9c-1,1-2,2-3.1,2.9c-2.6-1.7-5.4-4.3-8.8-3.2
		c-3.3,0.7-4.9,5.2-2.6,7.8c3.8,4.1,10.1,5,13.2,9.8c3.3,5,0.8,12.3-4.6,14.5c-5.4,2.5-12,0.5-15.9-3.8c1-1.1,2.1-2.2,3.1-3.3
		c1.7,1.5,3.5,3.2,5.9,3.7c3.9,1.1,8.9-2.3,8.1-6.6c-0.6-4-5-5.3-7.9-7.1C395.5,584,391.8,580.6,392,576.1z"/>
	<path fill="#F78509" d="M215.1,567c1.6,0,3.2,0,4.9,0c0,12.1,0,24.2,0,36.3c-1.6,0-3.2,0-4.8,0C215.1,591.2,215.2,579.1,215.1,567z
		"/>
	<path fill="#F78509" d="M351.7,566.9c1.6,0,3.3,0.1,4.9,0.2c-0.2,6.3-0.1,12.6-0.1,18.9c0.1,3.4,0.1,7.3,2.5,10
		c4.5,5,13.5,5,17.7-0.4c2-2.5,2.1-5.7,2.2-8.7c0-6.6,0-13.3,0-20c1.6,0,3.2,0,4.9,0c-0.5,9.2,1.1,18.7-1.3,27.7
		c-3.1,9.5-15.6,11.7-23.6,7.3c-4.7-2.5-6.9-8-7.1-13.1C351.5,581.6,351.8,574.2,351.7,566.9z"/>
	<path fill="#FDFCFC" d="M46.2,581.4c1.4-5.6,6-10.5,11.9-10.8c6.9-0.9,13.6,4.1,15,10.8C64.1,581.4,55.2,581.5,46.2,581.4z"/>
	<path fill="#FDFCFC" d="M162.5,571.8c6-2.9,13.8-0.4,17.3,5.2c4.9,6.9,2.3,17.7-5.4,21.3c-6.7,3.5-15.9,0.4-18.9-6.7
		C151.8,584.5,155.2,575,162.5,571.8z"/>
	<path fill="#FDFCFC" d="M242.3,571.4c8.3-3.3,18.3,2.9,19,11.7c1.4,7.7-4.4,15.6-12.2,16.5c-7.3,1.3-14.6-4.3-16-11.5
		C231.6,581.3,235.6,573.6,242.3,571.4z"/>
</g>
</svg>
